<svg xmlns="http://www.w3.org/2000/svg" viewBox="0 0 434.56 110.08" width="435" height="110" role="img" aria-label="Holodeck">
<g transform="translate(0 0) scale(1.58586) translate(-33.981 -4.412)"><defs>
<linearGradient id="g1Ld" gradientUnits="userSpaceOnUse"
          x1="15.0" y1="105.0" x2="105.0" y2="15.0">
          <stop offset="0%"   stop-color="#67E8F9" stop-opacity="0.0"/>
          <stop offset="30%"  stop-color="#67E8F9" stop-opacity="1"/>
          <stop offset="65%"  stop-color="#22D3EE" stop-opacity="1"/>
          <stop offset="100%" stop-color="#2E7CF6" stop-opacity="1"/>
        </linearGradient>
<linearGradient id="g2Ld" gradientUnits="userSpaceOnUse"
          x1="27.0" y1="93.0" x2="93.0" y2="27.0">
          <stop offset="0%"   stop-color="#38BDF8" stop-opacity="0.0"/>
          <stop offset="30%"  stop-color="#38BDF8" stop-opacity="1"/>
          <stop offset="65%"  stop-color="#6366F1" stop-opacity="1"/>
          <stop offset="100%" stop-color="#8B5CF6" stop-opacity="1"/>
        </linearGradient>
<linearGradient id="g3Ld" gradientUnits="userSpaceOnUse"
          x1="38.5" y1="81.5" x2="81.5" y2="38.5">
          <stop offset="0%"   stop-color="#A855F7" stop-opacity="0.0"/>
          <stop offset="30%"  stop-color="#A855F7" stop-opacity="1"/>
          <stop offset="65%"  stop-color="#D946EF" stop-opacity="1"/>
          <stop offset="100%" stop-color="#F472B6" stop-opacity="1"/>
        </linearGradient>
<radialGradient id="coreLd" cx="38%" cy="34%" r="72%">
        <stop offset="0%"   stop-color="#FFFFFF"/>
        <stop offset="42%"  stop-color="#EBD6FF"/>
        <stop offset="100%" stop-color="#9333EA"/>
      </radialGradient>
<radialGradient id="haloLd" cx="50%" cy="50%" r="50%">
          <stop offset="0%"   stop-color="#C084FC" stop-opacity="0.50"/>
          <stop offset="55%"  stop-color="#8B5CF6" stop-opacity="0.14"/>
          <stop offset="100%" stop-color="#8B5CF6" stop-opacity="0"/>
        </radialGradient>
</defs>
<circle cx="60.0" cy="60.0" r="26" fill="url(#haloLd)"/>
<path d="M 96.144 33.194 A 45.0 45.0 0 0 0 66.603 15.487" fill="none" stroke="url(#g1Ld)" stroke-width="8.5" stroke-linecap="round"/>
<path d="M 77.518 32.034 A 33.0 33.0 0 0 0 48.477 29.077" fill="none" stroke="url(#g2Ld)" stroke-width="10.0" stroke-linecap="round"/>
<path d="M 62.457 38.641 A 21.5 21.5 0 0 0 42.731 47.192" fill="none" stroke="url(#g3Ld)" stroke-width="11.5" stroke-linecap="round"/>
<circle cx="60.0" cy="60.0" r="7.0" fill="url(#coreLd)"/></g>
<g fill="#FFFFFF" transform="translate(143.10 77.44)"><g transform="scale(0.064000 -0.064000)"><path d="M630 695V0H516V304H189V0H75V695H189V397H516V695Z" transform="translate(0.00 0)"/><path d="M38 276Q38 360 75.0 425.0Q112 490 176.0 525.0Q240 560 319 560Q398 560 462.0 525.0Q526 490 563.0 425.0Q600 360 600 276Q600 192 562.0 127.0Q524 62 458.5 26.5Q393 -9 314 -9Q236 -9 173.0 26.5Q110 62 74.0 126.5Q38 191 38 276ZM483 276Q483 336 460.0 377.5Q437 419 399.0 440.0Q361 461 317 461Q273 461 235.5 440.0Q198 419 176.0 377.5Q154 336 154 276Q154 187 199.5 138.5Q245 90 314 90Q358 90 396.5 111.0Q435 132 459.0 174.0Q483 216 483 276Z" transform="translate(685.00 0)"/><path d="M189 740V0H75V740Z" transform="translate(1303.00 0)"/><path d="M38 276Q38 360 75.0 425.0Q112 490 176.0 525.0Q240 560 319 560Q398 560 462.0 525.0Q526 490 563.0 425.0Q600 360 600 276Q600 192 562.0 127.0Q524 62 458.5 26.5Q393 -9 314 -9Q236 -9 173.0 26.5Q110 62 74.0 126.5Q38 191 38 276ZM483 276Q483 336 460.0 377.5Q437 419 399.0 440.0Q361 461 317 461Q273 461 235.5 440.0Q198 419 176.0 377.5Q154 336 154 276Q154 187 199.5 138.5Q245 90 314 90Q358 90 396.5 111.0Q435 132 459.0 174.0Q483 216 483 276Z" transform="translate(1547.00 0)"/><path d="M298 560Q352 560 404.5 536.5Q457 513 488 474V740H603V0H488V83Q460 43 410.5 17.0Q361 -9 297 -9Q225 -9 165.5 27.5Q106 64 71.5 129.5Q37 195 37 278Q37 361 71.5 425.0Q106 489 165.5 524.5Q225 560 298 560ZM321 461Q277 461 239.0 439.5Q201 418 177.5 376.5Q154 335 154 278Q154 221 177.5 178.0Q201 135 239.5 112.5Q278 90 321 90Q365 90 403.0 112.0Q441 134 464.5 176.5Q488 219 488 276Q488 333 464.5 375.0Q441 417 403.0 439.0Q365 461 321 461Z" transform="translate(2165.00 0)"/><path d="M576 233H155Q160 167 204.0 127.0Q248 87 312 87Q404 87 442 164H565Q540 88 474.5 39.5Q409 -9 312 -9Q233 -9 170.5 26.5Q108 62 72.5 126.5Q37 191 37 276Q37 361 71.5 425.5Q106 490 168.5 525.0Q231 560 312 560Q390 560 451.0 526.0Q512 492 546.0 430.5Q580 369 580 289Q580 258 576 233ZM461 325Q460 388 416.0 426.0Q372 464 307 464Q248 464 206.0 426.5Q164 389 156 325Z" transform="translate(2823.00 0)"/><path d="M307 560Q407 560 472.5 512.5Q538 465 561 377H438Q423 418 390.0 441.0Q357 464 307 464Q237 464 195.5 414.5Q154 365 154 276Q154 187 195.5 137.0Q237 87 307 87Q406 87 438 174H561Q537 90 471.0 40.5Q405 -9 307 -9Q228 -9 167.0 26.5Q106 62 71.5 126.5Q37 191 37 276Q37 361 71.5 425.5Q106 490 167.0 525.0Q228 560 307 560Z" transform="translate(3420.00 0)"/><path d="M293 275 547 0H393L189 237V0H75V740H189V310L389 551H547Z" transform="translate(4000.00 0)"/></g></g>
</svg>